RobotoSerifMicroWide-RegularItalic04ip.ufo
<glyph name="exclam" format="2">
  <advance width="359"/>
  <unicode hex="0021"/>
  <outline>
    <contour>
      <point x="347" y="755" type="line"/>
      <point x="318" y="573"/>
      <point x="280" y="476"/>
      <point x="246" y="258" type="curve"/>
      <point x="170" y="258" type="line"/>
      <point x="204" y="476"/>
      <point x="196" y="572"/>
      <point x="225" y="755" type="curve"/>
    </contour>
    <component base="period" xOffset="4"/>
  </outline>
</glyph>
<glyph name="period" format="2">
  <advance width="351"/>
  <unicode hex="002E"/>
  <outline>
    <contour>
      <point x="265" y="73" type="curve" smooth="yes"/>
      <point x="265" y="116"/>
      <point x="240" y="147"/>
      <point x="192" y="147" type="curve" smooth="yes"/>
      <point x="140" y="147"/>
      <point x="107" y="114"/>
      <point x="107" y="64" type="curve" smooth="yes"/>
      <point x="107" y="21"/>
      <point x="132" y="-10"/>
      <point x="180" y="-10" type="curve" smooth="yes"/>
      <point x="232" y="-10"/>
      <point x="265" y="23"/>
    </contour>
  </outline>
</glyph>
<glyph name="zero" format="2">
  <advance width="680"/>
  <unicode hex="0030"/>
  <outline>
    <contour>
      <point x="350" y="-11" type="curve" smooth="yes"/>
      <point x="534" y="-11"/>
      <point x="674" y="124"/>
      <point x="674" y="406" type="curve" smooth="yes"/>
      <point x="674" y="586"/>
      <point x="583" y="683"/>
      <point x="438" y="683" type="curve" smooth="yes"/>
      <point x="254" y="683"/>
      <point x="114" y="548"/>
      <point x="114" y="266" type="curve" smooth="yes"/>
      <point x="114" y="87"/>
      <point x="206" y="-11"/>
    </contour>
    <contour>
      <point x="360" y="55" type="curve"/>
      <point x="251" y="55.0"/>
      <point x="208.0" y="129"/>
      <point x="208" y="276" type="curve" smooth="yes"/>
      <point x="208" y="515"/>
      <point x="302" y="617"/>
      <point x="428" y="617" type="curve" smooth="yes"/>
      <point x="540.0" y="617.0"/>
      <point x="580.0" y="541"/>
      <point x="580" y="396" type="curve" smooth="yes"/>
      <point x="580" y="157"/>
      <point x="486" y="55"/>
    </contour>
  </outline>
</glyph>
<glyph name="less" format="2">
  <advance width="680"/>
  <unicode hex="003C"/>
  <guideline x="87" y="344" angle="81" identifier="waUYEj2Qj8"/>
  <guideline x="601" y="348" angle="81" identifier="5Sv8DXIgG9"/>
  <outline>
    <contour>
      <point x="563" y="108.0" type="line"/>
      <point x="81" y="297.0" type="line"/>
      <point x="93" y="373.0" type="line"/>
      <point x="635" y="563.0" type="line"/>
      <point x="623" y="485.0" type="line"/>
      <point x="111" y="309.0" type="line"/>
      <point x="117" y="355.0" type="line"/>
      <point x="575" y="181.0" type="line"/>
    </contour>
  </outline>
</glyph>
<glyph name="t" format="2">
  <advance width="574"/>
  <unicode hex="0074"/>
  <anchor x="331" y="675" name="top"/>
  <anchor x="414" y="681" name="right"/>
  <anchor x="326" y="0" name="bottom"/>
  <outline>
    <contour>
      <point x="341" y="0.0" type="curve" smooth="yes"/>
      <point x="394" y="0.0"/>
      <point x="452" y="0.0"/>
      <point x="495" y="0.0" type="curve"/>
      <point x="507" y="62.0" type="line"/>
      <point x="467" y="62.0"/>
      <point x="389" y="62"/>
      <point x="356" y="62.0" type="curve" smooth="yes"/>
      <point x="304.0" y="62"/>
      <point x="282" y="77"/>
      <point x="282" y="110.0" type="curve" smooth="yes"/>
      <point x="282" y="130"/>
      <point x="283" y="136"/>
      <point x="287" y="162.0" type="curve" smooth="yes"/>
      <point x="377" y="731.0" type="line"/>
      <point x="301" y="731.0" type="line"/>
      <point x="285" y="644.0" type="line" smooth="yes"/>
      <point x="272" y="573"/>
      <point x="229" y="560"/>
      <point x="141" y="560.0" type="curve" smooth="yes"/>
      <point x="115" y="560.0" type="line"/>
      <point x="106" y="503.0" type="line"/>
      <point x="579" y="503.0" type="line"/>
      <point x="588" y="565.0" type="line"/>
      <point x="332" y="565.0" type="line"/>
      <point x="259" y="552.0" type="line"/>
      <point x="204" y="204.0" type="line" smooth="yes"/>
      <point x="197" y="159"/>
      <point x="192" y="127"/>
      <point x="192" y="104.0" type="curve" smooth="yes"/>
      <point x="192.0" y="35.0"/>
      <point x="239" y="0.0"/>
    </contour>
  </outline>
</glyph>
<glyph name="z" format="2">
  <advance width="746"/>
  <unicode hex="007A"/>
  <anchor x="425" y="565" name="top"/>
  <anchor x="373" y="0" name="bottom"/>
  <outline>
    <contour>
      <point x="534" y="-13" type="curve" smooth="yes"/>
      <point x="654" y="-13"/>
      <point x="720" y="59"/>
      <point x="690" y="205" type="curve"/>
      <point x="637" y="210" type="line"/>
      <point x="638" y="89"/>
      <point x="601" y="64"/>
      <point x="516" y="64" type="curve" smooth="yes"/>
      <point x="413" y="64"/>
      <point x="361" y="103"/>
      <point x="272" y="165" type="curve"/>
      <point x="240" y="133" type="line"/>
      <point x="352" y="42"/>
      <point x="427" y="-13"/>
    </contour>
    <contour>
      <point x="147" y="0" type="line"/>
      <point x="658" y="496" type="line"/>
      <point x="669" y="565" type="line"/>
      <point x="153" y="565" type="line"/>
      <point x="123" y="379" type="line"/>
      <point x="182" y="379" type="line"/>
      <point x="207" y="459" type="line" smooth="yes"/>
      <point x="218" y="495"/>
      <point x="236" y="502"/>
      <point x="330" y="502" type="curve" smooth="yes"/>
      <point x="586" y="502" type="line"/>
      <point x="569" y="515" type="line"/>
      <point x="93" y="55" type="line"/>
      <point x="89" y="0" type="line"/>
    </contour>
  </outline>
</glyph>
<glyph name="acute" format="2">
  <advance width="213"/>
  <unicode hex="00B4"/>
  <anchor x="185" y="565" name="_top"/>
  <outline>
    <contour>
      <point x="198.0" y="809" type="curve" smooth="yes"/>
      <point x="109.0" y="686" type="line"/>
      <point x="105.0" y="661" type="line"/>
      <point x="139.0" y="661" type="line"/>
      <point x="283.0" y="748" type="line" smooth="yes"/>
      <point x="319.0" y="769"/>
      <point x="342" y="787"/>
      <point x="342.0" y="816" type="curve" smooth="yes"/>
      <point x="342.0" y="842"/>
      <point x="325.0" y="867"/>
      <point x="283.0" y="867" type="curve" smooth="yes"/>
      <point x="242.0" y="867"/>
      <point x="222.0" y="842"/>
    </contour>
  </outline>
</glyph>
<glyph name="itilde" format="2">
  <advance width="435"/>
  <unicode hex="0129"/>
  <outline>
    <contour>
      <point x="394" y="659" type="curve" smooth="yes"/>
      <point x="467" y="659"/>
      <point x="497" y="692"/>
      <point x="524" y="831" type="curve"/>
      <point x="459" y="843" type="line"/>
      <point x="439" y="760"/>
      <point x="434" y="723"/>
      <point x="392" y="723" type="curve" smooth="yes"/>
      <point x="335" y="723"/>
      <point x="333" y="840"/>
      <point x="225" y="840" type="curve" smooth="yes"/>
      <point x="150" y="840"/>
      <point x="121" y="804"/>
      <point x="94" y="671" type="curve"/>
      <point x="159" y="660" type="line"/>
      <point x="178" y="746"/>
      <point x="184" y="778"/>
      <point x="223" y="778" type="curve" smooth="yes"/>
      <point x="278" y="778"/>
      <point x="283" y="659"/>
    </contour>
    <contour>
      <point x="294" y="218" type="curve" smooth="yes"/>
      <point x="356" y="565" type="line"/>
      <point x="137" y="565" type="line"/>
      <point x="129" y="512" type="line"/>
      <point x="172" y="507" type="line" smooth="yes"/>
      <point x="245" y="499"/>
      <point x="252" y="485"/>
      <point x="246" y="452" type="curve" smooth="yes"/>
      <point x="206" y="223" type="line" smooth="yes"/>
      <point x="189" y="127"/>
      <point x="183" y="97"/>
      <point x="183" y="73" type="curve" smooth="yes"/>
      <point x="183" y="20"/>
      <point x="214" y="0"/>
      <point x="290" y="0" type="curve" smooth="yes"/>
      <point x="334" y="0"/>
      <point x="369" y="0"/>
      <point x="403" y="0" type="curve"/>
      <point x="411" y="50" type="line"/>
      <point x="381" y="50"/>
      <point x="351" y="50"/>
      <point x="314" y="50" type="curve" smooth="yes"/>
      <point x="287" y="50"/>
      <point x="275" y="58"/>
      <point x="275" y="83" type="curve" smooth="yes"/>
      <point x="275" y="102"/>
      <point x="279" y="136"/>
    </contour>
  </outline>
</glyph>
<glyph name="dotaccent" format="2">
  <advance width="157"/>
  <unicode hex="02D9"/>
  <anchor x="167" y="565" name="_top"/>
  <outline>
    <contour>
      <point x="196" y="676" type="curve" smooth="yes"/>
      <point x="240" y="676"/>
      <point x="273" y="696"/>
      <point x="273" y="742" type="curve" smooth="yes"/>
      <point x="273" y="786"/>
      <point x="240" y="807"/>
      <point x="196" y="807" type="curve" smooth="yes"/>
      <point x="150" y="807"/>
      <point x="119" y="786"/>
      <point x="119" y="742" type="curve" smooth="yes"/>
      <point x="119" y="696"/>
      <point x="150" y="676"/>
    </contour>
  </outline>
</glyph>
<glyph name="idieresisacute" format="2">
  <advance width="435"/>
  <unicode hex="1E2F"/>
  <outline>
    <contour>
      <point x="204" y="676" type="curve" smooth="yes"/>
      <point x="158" y="676"/>
      <point x="127" y="696"/>
      <point x="127" y="742" type="curve" smooth="yes"/>
      <point x="127" y="786"/>
      <point x="158" y="807"/>
      <point x="204" y="807" type="curve" smooth="yes"/>
      <point x="248" y="807"/>
      <point x="281" y="786"/>
      <point x="281" y="742" type="curve" smooth="yes"/>
      <point x="281" y="696"/>
      <point x="248" y="676"/>
    </contour>
    <contour>
      <point x="461" y="676" type="curve" smooth="yes"/>
      <point x="415" y="676"/>
      <point x="384" y="696"/>
      <point x="384" y="742" type="curve" smooth="yes"/>
      <point x="384" y="786"/>
      <point x="415" y="807"/>
      <point x="461" y="807" type="curve" smooth="yes"/>
      <point x="505" y="807"/>
      <point x="538" y="786"/>
      <point x="538" y="742" type="curve" smooth="yes"/>
      <point x="538" y="696"/>
      <point x="505" y="676"/>
    </contour>
    <contour>
      <point x="418" y="1011" type="curve" smooth="yes"/>
      <point x="329" y="888" type="line"/>
      <point x="325" y="863" type="line"/>
      <point x="359" y="863" type="line"/>
      <point x="502" y="951" type="line" smooth="yes"/>
      <point x="539" y="973"/>
      <point x="565" y="990"/>
      <point x="565" y="1020" type="curve" smooth="yes"/>
      <point x="565" y="1045"/>
      <point x="547" y="1069"/>
      <point x="503" y="1069" type="curve" smooth="yes"/>
      <point x="462" y="1069"/>
      <point x="441" y="1043"/>
    </contour>
    <contour>
      <point x="294" y="218" type="curve" smooth="yes"/>
      <point x="356" y="565" type="line"/>
      <point x="137" y="565" type="line"/>
      <point x="129" y="512" type="line"/>
      <point x="172" y="507" type="line" smooth="yes"/>
      <point x="245" y="499"/>
      <point x="252" y="485"/>
      <point x="246" y="452" type="curve" smooth="yes"/>
      <point x="206" y="223" type="line" smooth="yes"/>
      <point x="189" y="127"/>
      <point x="183" y="97"/>
      <point x="183" y="73" type="curve" smooth="yes"/>
      <point x="183" y="20"/>
      <point x="214" y="0"/>
      <point x="290" y="0" type="curve" smooth="yes"/>
      <point x="334" y="0"/>
      <point x="369" y="0"/>
      <point x="403" y="0" type="curve"/>
      <point x="411" y="50" type="line"/>
      <point x="381" y="50"/>
      <point x="351" y="50"/>
      <point x="314" y="50" type="curve" smooth="yes"/>
      <point x="287" y="50"/>
      <point x="275" y="58"/>
      <point x="275" y="83" type="curve" smooth="yes"/>
      <point x="275" y="102"/>
      <point x="279" y="136"/>
    </contour>
  </outline>
</glyph>
<glyph name="guarani" format="2">
  <advance width="680"/>
  <unicode hex="20B2"/>
  <guideline x="396" y="824" angle="81" identifier="zY6BFTOVSe"/>
  <outline>
    <contour>
      <point x="424" y="790" type="line"/>
      <point x="406" y="675" type="line"/>
      <point x="415" y="665" type="line"/>
      <point x="314" y="46" type="line"/>
      <point x="305" y="35" type="line"/>
      <point x="280" y="-120" type="line"/>
      <point x="362" y="-120" type="line"/>
      <point x="387" y="36" type="line"/>
      <point x="380" y="46" type="line"/>
      <point x="480" y="661" type="line"/>
      <point x="489" y="679" type="line"/>
      <point x="506" y="790" type="line"/>
    </contour>
    <contour>
      <point x="394" y="10" type="curve" smooth="yes"/>
      <point x="494" y="10"/>
      <point x="567" y="48"/>
      <point x="607" y="75" type="curve"/>
      <point x="638" y="258" type="line" smooth="yes"/>
      <point x="643" y="287"/>
      <point x="665" y="294"/>
      <point x="701" y="294" type="curve" smooth="yes"/>
      <point x="709" y="294" type="line"/>
      <point x="719" y="357" type="line"/>
      <point x="566" y="357" type="line"/>
      <point x="556" y="297" type="line"/>
      <point x="556" y="297" type="line"/>
      <point x="556" y="297"/>
      <point x="555" y="290"/>
      <point x="550" y="261" type="curve" smooth="yes"/>
      <point x="524" y="105" type="line"/>
      <point x="504" y="91"/>
      <point x="458" y="72"/>
      <point x="397" y="72" type="curve" smooth="yes"/>
      <point x="245" y="72"/>
      <point x="179" y="152"/>
      <point x="179" y="304" type="curve"/>
      <point x="179.0" y="478.0"/>
      <point x="250" y="638.0"/>
      <point x="456" y="638" type="curve" smooth="yes"/>
      <point x="543.0" y="638.0"/>
      <point x="620" y="621"/>
      <point x="662" y="589" type="curve"/>
      <point x="671.5" y="608.0"/>
      <point x="638.7058823529412" y="640.3529411764706"/>
      <point x="613" y="656" type="curve"/>
      <point x="589" y="516" type="line"/>
      <point x="679" y="516" type="line"/>
      <point x="702" y="653" type="line"/>
      <point x="661" y="671"/>
      <point x="586" y="700"/>
      <point x="467" y="700" type="curve" smooth="yes"/>
      <point x="189.0" y="700.0"/>
      <point x="84" y="504"/>
      <point x="84" y="319" type="curve" smooth="yes"/>
      <point x="84.0" y="125"/>
      <point x="185.71417284186504" y="10.0"/>
    </contour>
  </outline>
</glyph>
<glyph name="servicemark" format="2">
  <advance width="1271"/>
  <unicode hex="2120"/>
  <guideline x="1231" y="752" angle="81" identifier="d4P5dcihHE"/>
  <outline>
    <contour>
      <point x="617" y="314" type="line"/>
      <point x="782" y="314" type="line"/>
      <point x="789" y="358" type="line"/>
      <point x="787" y="358" type="line" smooth="yes"/>
      <point x="763" y="358"/>
      <point x="746" y="361"/>
      <point x="747" y="368" type="curve" smooth="yes"/>
      <point x="799" y="705" type="line"/>
      <point x="788" y="706" type="line"/>
      <point x="888" y="313" type="line"/>
      <point x="940" y="313" type="line"/>
      <point x="1170" y="706" type="line"/>
      <point x="1157" y="701" type="line"/>
      <point x="1102" y="365" type="line" smooth="yes"/>
      <point x="1101" y="360"/>
      <point x="1073" y="358"/>
      <point x="1055" y="358" type="curve" smooth="yes"/>
      <point x="1050" y="358" type="line"/>
      <point x="1043" y="314" type="line"/>
      <point x="1226" y="314" type="line"/>
      <point x="1233" y="358" type="line"/>
      <point x="1221" y="358" type="line" smooth="yes"/>
      <point x="1191" y="358"/>
      <point x="1170" y="360"/>
      <point x="1172" y="374" type="curve" smooth="yes"/>
      <point x="1216" y="649" type="line" smooth="yes"/>
      <point x="1218" y="663"/>
      <point x="1242" y="666"/>
      <point x="1271" y="666" type="curve" smooth="yes"/>
      <point x="1284" y="666" type="line"/>
      <point x="1291" y="710" type="line"/>
      <point x="1110" y="710" type="line"/>
      <point x="914" y="359" type="line"/>
      <point x="940" y="364" type="line"/>
      <point x="854" y="710" type="line"/>
      <point x="681" y="710" type="line"/>
      <point x="674" y="666" type="line"/>
      <point x="685" y="666" type="line" smooth="yes"/>
      <point x="715" y="666"/>
      <point x="735" y="661"/>
      <point x="733" y="646" type="curve" smooth="yes"/>
      <point x="691" y="377" type="line" smooth="yes"/>
      <point x="689" y="362"/>
      <point x="665" y="358"/>
      <point x="635" y="358" type="curve" smooth="yes"/>
      <point x="624" y="358" type="line"/>
    </contour>
    <contour>
      <point x="215.0" y="555"/>
      <point x="255" y="524"/>
      <point x="346" y="500" type="curve" smooth="yes"/>
      <point x="427" y="479"/>
      <point x="485" y="462"/>
      <point x="485" y="415" type="curve" smooth="yes"/>
      <point x="485.0" y="374.0"/>
      <point x="455" y="354"/>
      <point x="392" y="354" type="curve" smooth="yes"/>
      <point x="303" y="354"/>
      <point x="253" y="386"/>
      <point x="238" y="452" type="curve"/>
      <point x="180" y="452" type="line"/>
      <point x="158" y="317" type="line"/>
      <point x="213" y="317" type="line"/>
      <point x="232" y="403" type="line"/>
      <point x="212" y="411" type="line"/>
      <point x="233" y="348"/>
      <point x="297" y="310"/>
      <point x="394" y="310" type="curve" smooth="yes"/>
      <point x="501" y="310"/>
      <point x="551" y="352"/>
      <point x="551" y="419" type="curve" smooth="yes"/>
      <point x="551.0" y="488.0"/>
      <point x="504" y="513"/>
      <point x="401" y="544" type="curve" smooth="yes"/>
      <point x="317" y="569"/>
      <point x="276" y="578"/>
      <point x="276" y="619" type="curve" smooth="yes"/>
      <point x="276.0" y="653.0"/>
      <point x="307" y="670"/>
      <point x="360" y="670" type="curve" smooth="yes"/>
      <point x="428.0" y="670.0"/>
      <point x="477" y="645"/>
      <point x="491" y="586" type="curve"/>
      <point x="547" y="586" type="line"/>
      <point x="566" y="707" type="line"/>
      <point x="514" y="707" type="line"/>
      <point x="495" y="634" type="line"/>
      <point x="512" y="625" type="line"/>
      <point x="488" y="690"/>
      <point x="437" y="715"/>
      <point x="358" y="715" type="curve" smooth="yes"/>
      <point x="266" y="715"/>
      <point x="215" y="673"/>
      <point x="215" y="616" type="curve" smooth="yes"/>
    </contour>
  </outline>
</glyph>
<glyph name="acute.uc" format="2">
  <advance width="230"/>
  <anchor x="212" y="740" name="_top"/>
  <outline>
    <contour>
      <point x="243" y="936" type="curve" smooth="yes"/>
      <point x="130" y="818" type="line"/>
      <point x="126" y="793" type="line"/>
      <point x="167" y="793" type="line"/>
      <point x="313" y="867" type="line" smooth="yes"/>
      <point x="358" y="890"/>
      <point x="377" y="902"/>
      <point x="377" y="932" type="curve" smooth="yes"/>
      <point x="377" y="952"/>
      <point x="365" y="977"/>
      <point x="324" y="977" type="curve" smooth="yes"/>
      <point x="290" y="977"/>
      <point x="269" y="963"/>
    </contour>
  </outline>
</glyph>
<glyph name="circumflex_acute.uc" format="2">
  <advance width="613"/>
  <guideline x="330" y="854" angle="81" identifier="lkq31fRkt7"/>
  <anchor x="311" y="740" name="_top"/>
  <outline>
    <contour>
      <point x="601" y="1054" type="curve" smooth="yes"/>
      <point x="499" y="946" type="line"/>
      <point x="496" y="921" type="line"/>
      <point x="537" y="921" type="line"/>
      <point x="671" y="985" type="line" smooth="yes"/>
      <point x="714" y="1005"/>
      <point x="734" y="1022"/>
      <point x="734" y="1049" type="curve" smooth="yes"/>
      <point x="734" y="1070"/>
      <point x="720" y="1095"/>
      <point x="680" y="1095" type="curve" smooth="yes"/>
      <point x="649.0" y="1095.0"/>
      <point x="626" y="1081"/>
    </contour>
    <contour>
      <point x="401" y="957" type="line"/>
      <point x="541" y="807" type="line"/>
      <point x="536" y="782" type="line"/>
      <point x="491" y="782" type="line"/>
      <point x="301" y="916" type="line"/>
      <point x="410" y="912" type="line"/>
      <point x="173" y="782" type="line"/>
      <point x="124" y="782" type="line"/>
      <point x="128" y="807" type="line"/>
      <point x="314" y="957" type="line"/>
    </contour>
  </outline>
</glyph>
<glyph name="circumflex_grave" format="2">
  <advance width="529"/>
  <guideline x="284" y="701" angle="81" identifier="q7ixjFwwB0"/>
  <anchor x="263" y="565" name="_top"/>
  <outline>
    <contour>
      <point x="539" y="938" type="curve" smooth="yes"/>
      <point x="600" y="824" type="line"/>
      <point x="596" y="800" type="line"/>
      <point x="565" y="800" type="line"/>
      <point x="449" y="896" type="line" smooth="yes"/>
      <point x="421" y="918"/>
      <point x="411" y="933"/>
      <point x="411" y="956" type="curve" smooth="yes"/>
      <point x="411" y="979"/>
      <point x="427" y="1001"/>
      <point x="463" y="1001" type="curve" smooth="yes"/>
      <point x="505" y="1001"/>
      <point x="520" y="974"/>
    </contour>
    <contour>
      <point x="364" y="844" type="line"/>
      <point x="495" y="681" type="line"/>
      <point x="490" y="656" type="line"/>
      <point x="449" y="656" type="line"/>
      <point x="271" y="802" type="line"/>
      <point x="344" y="784" type="line"/>
      <point x="151" y="656" type="line"/>
      <point x="104" y="656" type="line"/>
      <point x="108" y="681" type="line"/>
      <point x="285" y="844" type="line"/>
    </contour>
  </outline>
</glyph>
<glyph name="circumflex_grave.uc" format="2">
  <advance width="601"/>
  <anchor x="311" y="740" name="_top"/>
  <outline>
    <contour>
      <point x="578" y="1042" type="line" smooth="yes"/>
      <point x="545" y="1080"/>
      <point x="528" y="1097"/>
      <point x="494" y="1097" type="curve" smooth="yes"/>
      <point x="460" y="1097"/>
      <point x="443" y="1075"/>
      <point x="443" y="1054" type="curve" smooth="yes"/>
      <point x="443" y="1027"/>
      <point x="455" y="1018"/>
      <point x="501" y="991" type="curve" smooth="yes"/>
      <point x="618" y="923" type="line"/>
      <point x="655" y="923" type="line"/>
      <point x="661" y="948" type="line"/>
    </contour>
    <contour>
      <point x="401" y="957" type="line"/>
      <point x="541" y="807" type="line"/>
      <point x="536" y="782" type="line"/>
      <point x="491" y="782" type="line"/>
      <point x="301" y="916" type="line"/>
      <point x="410" y="912" type="line"/>
      <point x="173" y="782" type="line"/>
      <point x="124" y="782" type="line"/>
      <point x="128" y="807" type="line"/>
      <point x="314" y="957" type="line"/>
    </contour>
  </outline>
</glyph>
<glyph name="dblgrave.uc" format="2">
  <advance width="467"/>
  <anchor x="430" y="740" name="_top"/>
  <outline>
    <contour>
      <point x="525" y="926" type="line" smooth="yes"/>
      <point x="505" y="958"/>
      <point x="489" y="974"/>
      <point x="453" y="974" type="curve" smooth="yes"/>
      <point x="421" y="974"/>
      <point x="403" y="955"/>
      <point x="403" y="932" type="curve" smooth="yes"/>
      <point x="403" y="907"/>
      <point x="414" y="898"/>
      <point x="465" y="861" type="curve" smooth="yes"/>
      <point x="557" y="793" type="line"/>
      <point x="593" y="793" type="line"/>
      <point x="592" y="818" type="line"/>
    </contour>
    <contour>
      <point x="290" y="926" type="line" smooth="yes"/>
      <point x="270" y="958"/>
      <point x="254" y="974"/>
      <point x="218" y="974" type="curve" smooth="yes"/>
      <point x="186" y="974"/>
      <point x="168" y="955"/>
      <point x="168" y="932" type="curve" smooth="yes"/>
      <point x="168" y="907"/>
      <point x="179" y="898"/>
      <point x="230" y="861" type="curve" smooth="yes"/>
      <point x="322" y="793" type="line"/>
      <point x="358" y="793" type="line"/>
      <point x="357" y="818" type="line"/>
    </contour>
  </outline>
</glyph>
<glyph name="dieresis.uc" format="2">
  <advance width="469"/>
  <anchor x="351" y="740" name="_top"/>
  <outline>
    <contour>
      <point x="214" y="792" type="curve" smooth="yes"/>
      <point x="258" y="792"/>
      <point x="291" y="812"/>
      <point x="291" y="858" type="curve" smooth="yes"/>
      <point x="291" y="902"/>
      <point x="258" y="923"/>
      <point x="214" y="923" type="curve" smooth="yes"/>
      <point x="168" y="923"/>
      <point x="137" y="902"/>
      <point x="137" y="858" type="curve" smooth="yes"/>
      <point x="137" y="812"/>
      <point x="168" y="792"/>
    </contour>
    <contour>
      <point x="527" y="792" type="curve" smooth="yes"/>
      <point x="571" y="792"/>
      <point x="604" y="812"/>
      <point x="604" y="858" type="curve" smooth="yes"/>
      <point x="604" y="902"/>
      <point x="571" y="923"/>
      <point x="527" y="923" type="curve" smooth="yes"/>
      <point x="481" y="923"/>
      <point x="450" y="902"/>
      <point x="450" y="858" type="curve" smooth="yes"/>
      <point x="450" y="812"/>
      <point x="481" y="792"/>
    </contour>
  </outline>
</glyph>
<glyph name="eight.prop" format="2">
  <advance width="696"/>
  <outline>
    <contour>
      <point x="357" y="54" type="curve" smooth="yes"/>
      <point x="242" y="54"/>
      <point x="184" y="94"/>
      <point x="184" y="181" type="curve" smooth="yes"/>
      <point x="184" y="294"/>
      <point x="278" y="343"/>
      <point x="399" y="343" type="curve" smooth="yes"/>
      <point x="517" y="343"/>
      <point x="572" y="304"/>
      <point x="572" y="215" type="curve" smooth="yes"/>
      <point x="572" y="108"/>
      <point x="489" y="54"/>
    </contour>
    <contour>
      <point x="410" y="401" type="curve" smooth="yes"/>
      <point x="301" y="401"/>
      <point x="265" y="446"/>
      <point x="265" y="516" type="curve" smooth="yes"/>
      <point x="265" y="616"/>
      <point x="341" y="656"/>
      <point x="451" y="656" type="curve" smooth="yes"/>
      <point x="561" y="656"/>
      <point x="597" y="611"/>
      <point x="597" y="541" type="curve" smooth="yes"/>
      <point x="597" y="441"/>
      <point x="521" y="401"/>
    </contour>
    <contour>
      <point x="348" y="-10" type="curve" smooth="yes"/>
      <point x="542" y="-10"/>
      <point x="671" y="60"/>
      <point x="671" y="210" type="curve" smooth="yes"/>
      <point x="671" y="308"/>
      <point x="595" y="362"/>
      <point x="472" y="376" type="curve"/>
      <point x="529" y="352" type="line"/>
      <point x="535" y="395" type="line"/>
      <point x="472" y="373" type="line"/>
      <point x="587" y="384"/>
      <point x="688" y="432"/>
      <point x="688" y="551" type="curve" smooth="yes"/>
      <point x="688" y="658"/>
      <point x="613" y="720"/>
      <point x="451" y="720" type="curve" smooth="yes"/>
      <point x="299" y="720"/>
      <point x="175" y="648"/>
      <point x="175" y="521" type="curve" smooth="yes"/>
      <point x="175" y="430"/>
      <point x="219" y="384"/>
      <point x="329" y="373" type="curve"/>
      <point x="284" y="395" type="line"/>
      <point x="278" y="352" type="line"/>
      <point x="329" y="375" type="line"/>
      <point x="203" y="361"/>
      <point x="85" y="308"/>
      <point x="85" y="170" type="curve" smooth="yes"/>
      <point x="85" y="60"/>
      <point x="163" y="-10"/>
    </contour>
  </outline>
</glyph>
<glyph name="grave.uc" format="2">
  <advance width="289"/>
  <anchor x="302" y="740" name="_top"/>
  <outline>
    <contour>
      <point x="372" y="793" type="line"/>
      <point x="226" y="867" type="line" smooth="yes"/>
      <point x="182" y="889"/>
      <point x="161" y="905"/>
      <point x="161" y="935" type="curve" smooth="yes"/>
      <point x="161" y="957"/>
      <point x="176" y="979"/>
      <point x="216" y="979" type="curve" smooth="yes"/>
      <point x="255.0" y="979.0"/>
      <point x="279" y="964"/>
      <point x="311" y="927" type="curve" smooth="yes"/>
      <point x="406" y="818" type="line"/>
      <point x="405" y="793" type="line"/>
    </contour>
  </outline>
</glyph>
<glyph name="parenleft.uc" format="2">
  <advance width="489"/>
  <outline>
    <contour>
      <point x="365" y="-80" type="curve"/>
      <point x="446" y="-80" type="line"/>
      <point x="447" y="-77" type="line"/>
      <point x="303" y="33"/>
      <point x="221" y="138"/>
      <point x="221" y="297" type="curve" smooth="yes"/>
      <point x="221" y="516"/>
      <point x="350" y="651"/>
      <point x="574" y="747" type="curve"/>
      <point x="576" y="750" type="line"/>
      <point x="484" y="750" type="line"/>
      <point x="291" y="681"/>
      <point x="125" y="526"/>
      <point x="125" y="299" type="curve" smooth="yes"/>
      <point x="125" y="142"/>
      <point x="207" y="23"/>
    </contour>
  </outline>
</glyph>
<glyph name="six.oldprop" format="2">
  <advance width="712"/>
  <outline>
    <contour>
      <point x="700" y="676" type="line"/>
      <point x="322" y="661"/>
      <point x="211.0" y="507.0"/>
      <point x="211" y="298" type="curve" smooth="yes"/>
      <point x="211" y="144"/>
      <point x="280.0" y="52.0"/>
      <point x="416" y="52" type="curve"/>
      <point x="554.0" y="52.0"/>
      <point x="612" y="126"/>
      <point x="612" y="241" type="curve" smooth="yes"/>
      <point x="612.0" y="328.0"/>
      <point x="569.0" y="406.0"/>
      <point x="446" y="406" type="curve" smooth="yes"/>
      <point x="342.0" y="406.0"/>
      <point x="271" y="353"/>
      <point x="205" y="262" type="curve"/>
      <point x="202" y="311" type="line"/>
      <point x="252" y="396"/>
      <point x="339" y="468"/>
      <point x="472" y="468" type="curve" smooth="yes"/>
      <point x="616.0" y="468.0"/>
      <point x="712.0" y="379.0"/>
      <point x="712" y="247" type="curve" smooth="yes"/>
      <point x="712.0" y="122.0"/>
      <point x="626" y="-10"/>
      <point x="417" y="-10" type="curve"/>
      <point x="206.0" y="-10.0"/>
      <point x="113.0" y="129.0"/>
      <point x="113" y="298" type="curve" smooth="yes"/>
      <point x="113" y="559"/>
      <point x="288" y="729"/>
      <point x="695" y="740" type="curve"/>
    </contour>
  </outline>
</glyph>
<glyph name="two.linprop" format="2">
  <advance width="715"/>
  <guideline x="685" y="202" angle="81" identifier="YiW8cIhW3h"/>
  <outline>
    <contour>
      <point x="437" y="68" type="line" smooth="yes"/>
      <point x="537" y="68"/>
      <point x="579" y="75"/>
      <point x="588" y="109" type="curve" smooth="yes"/>
      <point x="618" y="216" type="line"/>
      <point x="687" y="216" type="line"/>
      <point x="653" y="0" type="line"/>
      <point x="46" y="0" type="line"/>
      <point x="59" y="83" type="line"/>
      <point x="408" y="289"/>
      <point x="591" y="352"/>
      <point x="591" y="522" type="curve" smooth="yes"/>
      <point x="591.0" y="618.0"/>
      <point x="539" y="671.0"/>
      <point x="406" y="671" type="curve" smooth="yes"/>
      <point x="317" y="671"/>
      <point x="246" y="645"/>
      <point x="209" y="617" type="curve"/>
      <point x="213" y="641"/>
      <point x="225.0" y="670.0"/>
      <point x="254" y="661" type="curve"/>
      <point x="231" y="518" type="line"/>
      <point x="141" y="518" type="line"/>
      <point x="166" y="675" type="line"/>
      <point x="204" y="699"/>
      <point x="301" y="735"/>
      <point x="411" y="735" type="curve" smooth="yes"/>
      <point x="597" y="735.0"/>
      <point x="691.0" y="655"/>
      <point x="691" y="527" type="curve" smooth="yes"/>
      <point x="691.0" y="325.0"/>
      <point x="435" y="222"/>
      <point x="94" y="49" type="curve"/>
      <point x="90" y="68" type="line"/>
    </contour>
  </outline>
</glyph>
<glyph name="zero.propslash" format="2">
  <advance width="739"/>
  <outline>
    <contour>
      <point x="190" y="139" type="line"/>
      <point x="674" y="473" type="line"/>
      <point x="656" y="533" type="line"/>
      <point x="172" y="202" type="line"/>
    </contour>
    <contour>
      <point x="401" y="-11" type="curve" smooth="yes"/>
      <point x="629" y="-11"/>
      <point x="730" y="189"/>
      <point x="730" y="380" type="curve" smooth="yes"/>
      <point x="730" y="560"/>
      <point x="637" y="682"/>
      <point x="445" y="682" type="curve" smooth="yes"/>
      <point x="216" y="682"/>
      <point x="115" y="482"/>
      <point x="115" y="291" type="curve" smooth="yes"/>
      <point x="115" y="111"/>
      <point x="209" y="-11"/>
    </contour>
    <contour>
      <point x="391" y="54" type="curve" smooth="yes"/>
      <point x="271" y="54"/>
      <point x="214" y="135"/>
      <point x="214" y="270" type="curve" smooth="yes"/>
      <point x="214" y="467"/>
      <point x="289" y="617"/>
      <point x="454" y="617" type="curve" smooth="yes"/>
      <point x="574" y="617"/>
      <point x="632" y="535"/>
      <point x="632" y="401" type="curve" smooth="yes"/>
      <point x="632" y="208"/>
      <point x="558" y="54"/>
    </contour>
  </outline>
</glyph>
<glyph name="zero.slash" format="2">
  <advance width="680"/>
  <outline>
    <contour>
      <point x="350.0" y="-11.0" type="curve" smooth="yes"/>
      <point x="534.0" y="-11.0"/>
      <point x="674.0" y="124.0"/>
      <point x="674.0" y="406.0" type="curve" smooth="yes"/>
      <point x="674.0" y="586.0"/>
      <point x="583.0" y="683.0"/>
      <point x="438.0" y="683.0" type="curve" smooth="yes"/>
      <point x="254.0" y="683.0"/>
      <point x="114.0" y="548.0"/>
      <point x="114.0" y="266.0" type="curve" smooth="yes"/>
      <point x="114.0" y="87.0"/>
      <point x="206.0" y="-11.0"/>
    </contour>
    <contour>
      <point x="182" y="152" type="line"/>
      <point x="630" y="461" type="line"/>
      <point x="612" y="521" type="line"/>
      <point x="159" y="211" type="line"/>
    </contour>
    <contour>
      <point x="360.0" y="55.0" type="curve"/>
      <point x="251.0" y="55.0"/>
      <point x="208.0" y="129.0"/>
      <point x="208.0" y="276.0" type="curve" smooth="yes"/>
      <point x="208.0" y="515.0"/>
      <point x="302.0" y="617.0"/>
      <point x="428.0" y="617.0" type="curve" smooth="yes"/>
      <point x="540.0" y="617.0"/>
      <point x="580.0" y="541.0"/>
      <point x="580.0" y="396.0" type="curve" smooth="yes"/>
      <point x="580.0" y="157.0"/>
      <point x="486.0" y="55.0"/>
    </contour>
  </outline>
</glyph>
<glyph name="zero.slashold" format="2">
  <advance width="680"/>
  <outline>
    <contour>
      <point x="370" y="-11.0" type="curve"/>
      <point x="581" y="-11.0"/>
      <point x="683" y="160.0"/>
      <point x="683" y="346.0" type="curve" smooth="yes"/>
      <point x="683" y="529.0"/>
      <point x="604" y="648.0"/>
      <point x="412" y="648.0" type="curve"/>
      <point x="201" y="648.0"/>
      <point x="98" y="477.0"/>
      <point x="98" y="291.0" type="curve" smooth="yes"/>
      <point x="98" y="100.0"/>
      <point x="177" y="-11.0"/>
    </contour>
    <contour>
      <point x="152" y="134" type="line"/>
      <point x="652" y="444" type="line"/>
      <point x="633" y="504" type="line"/>
      <point x="129" y="194" type="line"/>
    </contour>
    <contour>
      <point x="365" y="55" type="curve"/>
      <point x="246" y="55"/>
      <point x="197" y="140"/>
      <point x="197" y="270" type="curve" smooth="yes"/>
      <point x="197" y="446"/>
      <point x="263" y="583"/>
      <point x="415" y="583" type="curve"/>
      <point x="532" y="583"/>
      <point x="584" y="505"/>
      <point x="584" y="369" type="curve" smooth="yes"/>
      <point x="584" y="187"/>
      <point x="518" y="55"/>
    </contour>
  </outline>
</glyph>
